<?xml version="1.0" encoding="UTF-8"?>
<svg id="Layer_1" xmlns="http://www.w3.org/2000/svg" version="1.1" xmlns:xlink="http://www.w3.org/1999/xlink" viewBox="0 0 2048 2048">
  <!-- Generator: Adobe Illustrator 29.8.2, SVG Export Plug-In . SVG Version: 2.1.1 Build 3)  -->
  <defs>
    <style>
      .st0 {
        fill: url(#linear-gradient2);
      }

      .st1 {
        fill: url(#linear-gradient10);
      }

      .st2 {
        fill: url(#linear-gradient1);
      }

      .st3 {
        fill: url(#linear-gradient9);
      }

      .st4 {
        fill: url(#linear-gradient8);
      }

      .st5 {
        fill: url(#linear-gradient11);
      }

      .st6 {
        fill: url(#linear-gradient16);
      }

      .st7 {
        fill: url(#linear-gradient12);
      }

      .st8 {
        fill: url(#linear-gradient7);
      }

      .st9 {
        fill: #f3c132;
      }

      .st10 {
        fill: url(#linear-gradient4);
      }

      .st11 {
        fill: url(#linear-gradient14);
      }

      .st12 {
        fill: url(#linear-gradient5);
      }

      .st13 {
        fill: url(#linear-gradient3);
      }

      .st14 {
        fill: #e6aa17;
      }

      .st15 {
        fill: url(#linear-gradient15);
      }

      .st16 {
        fill: url(#linear-gradient6);
      }

      .st17 {
        fill: url(#linear-gradient13);
      }

      .st18 {
        fill: url(#linear-gradient);
      }

      .st19 {
        fill: #fdfdfd;
      }
    </style>
    <linearGradient id="linear-gradient" x1="1298.01" y1="555.05" x2="1300.64" y2="554.54" gradientUnits="userSpaceOnUse">
      <stop offset="0" stop-color="#c46c10"/>
      <stop offset="1" stop-color="#f0c024"/>
    </linearGradient>
    <linearGradient id="linear-gradient1" x1="1299.74" y1="549.8" x2="1301.08" y2="549.54" xlink:href="#linear-gradient"/>
    <linearGradient id="linear-gradient2" x1="1299.74" y1="549.8" x2="1301.08" y2="549.54" xlink:href="#linear-gradient"/>
    <linearGradient id="linear-gradient3" x1="626.62" y1="871.59" x2="1460.94" y2="708.71" xlink:href="#linear-gradient"/>
    <linearGradient id="linear-gradient4" x1="479" y1="1710.97" x2="1638.01" y2="1484.71" xlink:href="#linear-gradient"/>
    <linearGradient id="linear-gradient5" x1="479" y1="1710.97" x2="1638.01" y2="1484.71" xlink:href="#linear-gradient"/>
    <linearGradient id="linear-gradient6" x1="479" y1="1710.97" x2="1638.01" y2="1484.71" xlink:href="#linear-gradient"/>
    <linearGradient id="linear-gradient7" x1="479" y1="1710.97" x2="1638.01" y2="1484.71" xlink:href="#linear-gradient"/>
    <linearGradient id="linear-gradient8" x1="479" y1="1710.97" x2="1638.01" y2="1484.71" xlink:href="#linear-gradient"/>
    <linearGradient id="linear-gradient9" x1="479" y1="1710.97" x2="1638.01" y2="1484.71" xlink:href="#linear-gradient"/>
    <linearGradient id="linear-gradient10" x1="479" y1="1710.97" x2="1638.01" y2="1484.71" xlink:href="#linear-gradient"/>
    <linearGradient id="linear-gradient11" x1="479" y1="1710.97" x2="1638.01" y2="1484.71" xlink:href="#linear-gradient"/>
    <linearGradient id="linear-gradient12" x1="479" y1="1710.97" x2="1638.01" y2="1484.71" xlink:href="#linear-gradient"/>
    <linearGradient id="linear-gradient13" x1="479" y1="1710.97" x2="1638.01" y2="1484.71" xlink:href="#linear-gradient"/>
    <linearGradient id="linear-gradient14" x1="479" y1="1710.97" x2="1638.01" y2="1484.71" xlink:href="#linear-gradient"/>
    <linearGradient id="linear-gradient15" x1="479" y1="1710.97" x2="1638.01" y2="1484.71" xlink:href="#linear-gradient"/>
    <linearGradient id="linear-gradient16" x1="479" y1="1710.97" x2="1638.01" y2="1484.71" xlink:href="#linear-gradient"/>
  </defs>
  <path class="st19" d="M1242.39,576.05c-14.98,14.76-29.84,29.62-44.59,44.61h-.01l-1.26,1.55h0c-4.74,4.51-9.61,8.93-14,13.77l-176.05-.04c-10.03,46.85-22.89,93.05-38.49,138.35-5.07,14.73-9.82,30.02-16.28,44.18-.83,2.41-1.71,4.8-2.65,7.17l-10.01-9.71-39.32-39.82c11.08-32.64,21.11-65.19,29.62-98.59,3.49-13.72,7.37-27.59,9.36-41.62-66.87.69-133.82.05-200.71.06v-59.94h212.57c9.34-51.29,16.8-104.99,18.63-157.12,16.23.46,32.6,2.64,48.77,4.22,6.02.59,12.18,1.02,18.31,1.6-.53,6.42-1.05,13.72-1.12,18.4-.34,5-.72,10.01-1.15,15.02-.01.04-.01.06-.01.06-3.39,39.35-9.48,78.98-15.57,117.85h223.96,0Z"/>
  <path class="st18" d="M1299.79,550.2h.01c-.07,3.18-.39,6.07-.97,9.2h-.01c.58-3.13.9-6.02.97-9.2Z"/>
  <polygon class="st2" points="1301.01 549.16 1301.01 549.17 1299.8 550.2 1301.01 549.16"/>
  <path class="st14" d="M1174.76,647.8c-.02,2.42-.1,4.61-.44,7-.06.44-.11.89-.17,1.34-.37,2.83-.58,4.64-2.43,6.96-1.72.5-6.1-.89-6.51.01-1.73,3.74,1.44,11.68-3.44,13.45-3.45,1.26-10.21-1.17-13.31.35-3.28,1.62-5.44,8.5-9.67,7.83.49-2.32,1.19-4.23,2.1-6.41,4.57-7.82,24.28-24.87,31.84-32.28l2.03,1.75h0Z"/>
  <path class="st9" d="M1290.65,629.4c-.2-2.05-.23-3.61.35-5.59.17-.58.35-1.15.52-1.73-1.42-1.36-.74-.58-1.96-2.4,2.14-.11,4.12-.43,6.22-.85,2.26-2.47,1.94-5.79,2.29-9.07,3.54-3.2,11.51-11.87,15.98-12.16,1,1.14,1.87,1.93,3.11,2.84.41.3.82.58,1.24.86l-3.18,3.6c-8.44,7.9-16.47,16.24-24.57,24.49h0Z"/>
  <path class="st14" d="M1196.53,622.22l1.26-1.55,7.5-.32c.23,1.95-.53,3.09-1.27,4.86.34.18.68.34,1.01.53,1.44.83.94.44,1.88,1.89l-1.18,2.16c-2.5-.3-3.37-1.59-5.23-3.17l-3.08,3.05-1.42-.36.15-1.44c.18-1.89.29-3.77.38-5.66h0Z"/>
  <path class="st9" d="M1296.33,563.23l2.11,1.42c1.36,2.75,1.06,3.97.91,6.98l-1.79.06c-1.62-2.8-1.18-5.25-1.23-8.46h0Z"/>
  <path class="st9" d="M1296.43,590.4l2.58,2.45c.25,2.77-.47,3.12-2.05,5.45l-.73-.14c-1.19-2.84-.33-4.78.2-7.76h0Z"/>
  <path class="st18" d="M1299.79,550.2h.01c-.07,3.18-.39,6.07-.97,9.2h-.01c.58-3.13.9-6.02.97-9.2Z"/>
  <polygon class="st0" points="1301.01 549.16 1301.01 549.17 1299.8 550.2 1301.01 549.16"/>
  <g>
    <g>
      <path class="st19" d="M1323.55,591.36c-4.27-7.97-2.45-22.2-1.31-31.15-6.33.11-14.09,1.25-19.53-2.52-1.46-3.05-1.02-3.84-.5-7.1l-1.19-1.44-1.22,1.04c-.07,3.18-.39,6.07-.97,9.2l-1.24.77-.94-.88c-.1-4.84-1.21-20.45,2.19-23.75,2.34-2.28,3.86-.59,5.78-4.31-.52-1.6-.95-3.06-1.16-4.74,1.96-.8,3.34-1.6,4.99-2.93.72-3.07.43-3.02-1.14-5.8,1.27-4,4.79-2.95,6.52-6.67l-3.11-3.24c-23.38,22.05-44.52,46.69-68.33,68.21h-223.96c6.09-38.87,12.18-78.5,15.57-117.85,0,0,0-.02.01-.06.43-5.01.81-10.02,1.15-15.02.07-4.68.59-11.98,1.12-18.4-6.13-.58-12.29-1.01-18.31-1.6-16.17-1.58-32.54-3.76-48.77-4.22-1.83,52.13-9.29,105.83-18.63,157.12h-212.58v59.94h.01c66.89-.01,133.84.63,200.71-.06-1.99,14.03-5.87,27.9-9.36,41.62-8.51,33.4-18.54,65.95-29.62,98.59-40.27,106.24-91.14,194.34-173.52,273.7-20.19,19.46-41.8,39.29-65.4,54.59,17.97,12.08,35.94,23.84,50.99,39.62,72.14-49.62,134.47-125.94,179.14-200.55,9.38-15.66,19.12-32,26.52-48.71,17.98,17.79,35.6,35.94,53.7,53.61l133.47,133.82c-15.07-2.56-30.75-3.21-45.93-5.28-31.28-4.19-62.37-9.74-93.16-16.63,3.07,21.04,3.83,42.03,3.07,63.26,48.19,11,102.35,19.42,151.73,20.65,36.73.92,71.95-5.55,99.29-31.92,13.02-12.62,23.51-27.61,30.9-44.16,38.15-85.89,51.46-251.75,58.25-348.25,2.68-38.2,5.77-76.66,6.44-114.95h0l3.18-3.6,5.86-5.83c.05-1.67.11-2.6-.71-4.12h0ZM971.1,847.72c-7.05-7.4-14.29-15.4-22.04-22.08.94-2.37,1.82-4.76,2.65-7.17,6.46-14.16,11.21-29.45,16.28-44.18,15.6-45.3,28.46-91.5,38.49-138.35l176.05.04c-3.3,3.32-6.57,6.68-9.8,10.07-7.56,7.41-27.27,24.46-31.84,32.28-13.4,12.04-26.37,25.32-38.71,38.44-8.79,8.37-18.03,16.97-25.88,26.24-5.98,4.8-16.41,18.9-22.44,21.13-8.85,11.16-20.09,21.03-30.21,31.09-17.6,17.41-35.12,34.91-52.55,52.49h0ZM1222.94,912.34c-5.9,37.36-12.46,76.77-25.86,112.29-4.36,11.59-10,21.96-16.85,32.25l-158.04-158.75c14.06-16.46,30.95-31.52,46.3-46.84,24.97-24.92,49.62-50.32,75.13-74.7l.59-.57c33.71-34.5,67.68-68.74,101.91-102.72-3.69,80.02-11.43,159.8-23.18,239.04h0Z"/>
      <path class="st13" d="M1414.11,454.74c-43.72.07-87.65.92-131.37-.3,13.45,13.49,27.2,26.79,40.18,40.73-3.88,4.43-8.5,8.06-12.2,12.68l3.11,3.24c-.11.23-.22.45-.35.64.12-.19.23-.41.34-.64l-3.11-3.24c-23.38,22.05-44.52,46.69-68.33,68.21-14.98,14.76-29.85,29.63-44.6,44.62l-1.26,1.55c-4.74,4.5-9.61,8.92-14,13.76-3.3,3.32-6.57,6.68-9.8,10.07-7.56,7.41-27.27,24.46-31.84,32.28-13.4,12.04-26.37,25.32-38.71,38.44-8.79,8.37-18.03,16.97-25.88,26.24-5.98,4.8-16.4,18.9-22.44,21.13-8.84,11.16-20.08,21.03-30.2,31.09-17.61,17.41-35.12,34.91-52.56,52.49-7.05-7.4-14.29-15.4-22.04-22.08l-10.01-9.71-39.32-39.82c-40.27,106.24-91.14,194.34-173.52,273.7-20.19,19.46-41.8,39.29-65.4,54.59,17.97,12.08,35.94,23.84,50.99,39.62,72.14-49.62,134.47-125.94,179.14-200.55,9.38-15.66,19.12-32,26.52-48.71,17.98,17.79,35.6,35.94,53.7,53.61,17.16-16.59,34.17-33.34,51.03-50.25,14.06-16.46,30.96-31.52,46.3-46.84,24.97-24.92,49.62-50.32,75.13-74.7l.59-.57c33.72-34.5,67.69-68.74,101.91-102.72,15.4-13.85,29.85-29.27,44.54-43.89,8.09-8.25,16.13-16.59,24.56-24.49l3.19-3.6,5.85-5.83c0-.2.01-.39.02-.57,0,.18-.01.37-.01.57,13.21-13.52,26.2-28.19,40.48-40.57l8.67-9.53c5.99,6.15,11.85,12.52,18.11,18.39,7.38,7.7,14.9,15.26,22.58,22.67l.02-131.71h-.01ZM1321.88,562.99c-.19,1.59-.38,3.28-.55,5.03.16-1.75.36-3.44.55-5.03ZM1307.43,517.4c.13-.35.28-.65.45-.92-.16.27-.31.57-.45.92-.04.11-.08.24-.12.36,1.57,2.78,1.86,2.73,1.14,5.8h-.01c.72-3.07.43-3.02-1.14-5.8.04-.12.08-.25.13-.36ZM1303.45,526.49h.01c.21,1.68.64,3.14,1.16,4.74-.48.93-.94,1.52-1.38,1.92.44-.41.89-1,1.37-1.92-.52-1.6-.95-3.06-1.16-4.74ZM1296.64,559.29c-.1-4.84-1.21-20.45,2.19-23.75h.01c-3.4,3.3-2.29,18.91-2.19,23.75h-.01ZM1299.8,550.2c-.07,3.18-.39,6.07-.97,9.2h-.01c.58-3.13.9-6.02.97-9.2h.01l1.21-1.04h.01l1.18,1.44-1.19-1.43-1.21,1.03ZM1323.54,591.37c-3.14-5.87-2.99-15.13-2.23-23.17-.75,8.05-.9,17.3,2.24,23.17.07.14.14.28.2.41-.06-.13-.13-.27-.21-.41Z"/>
      <g>
        <path class="st19" d="M1586.7,1271.14l36.41-.08.1,199.03-30.12.08c-37.74-43.87-72.9-90.09-109.81-134.67l-.11,134.61-36.53-.02c.79-66.28.13-132.64.22-198.93h29.91c38.08,43.51,73,90.19,110.05,134.64-.54-44.87-.17-89.79-.12-134.66h0Z"/>
        <path class="st19" d="M778.01,1334.78c-9.58-21.2-18.68-42.85-29.09-63.63h-35.77c-14.71,29.99-27.66,61.06-41.34,91.56-16.03,35.73-32.82,71.28-48.04,107.35l37.9.05c6.53-15.26,12.54-31.06,19.75-45.98h69.82l29.24-.02,19.71,45.98,38.81.04-60.99-135.35h0ZM733.48,1395.11l-39.32-.02c11.48-28.93,24.2-57.38,36.27-86.06,5.99,6.81,31.94,72.21,37.66,86.06l-34.61.02h0Z"/>
        <path class="st19" d="M424.8,1271.13l36.82-.03c.64,33.91-.33,67.88.24,101.81,33.02-33.67,64.41-69.54,98.8-101.78l40.54.04c-28.03,29.71-55.55,59.86-83.89,89.27,15.95,17.24,30.18,36.49,44.88,54.82,14.85,18.16,29.01,36.92,44.18,54.82l-43.05-.02c-24.08-27.23-46.3-56.09-70.58-83.14-10.14,11.09-20.78,21.76-31.26,32.52.16,16.88.13,33.77-.08,50.65l-36.53.03-.06-198.99h-.01Z"/>
        <path class="st19" d="M1227.88,1271.21c48.24-.74,96.6-.08,144.85-.1l.06,31.15-108.08-.08v51.85l95.73-.06-.13,30.4-91.57-.08-2.88.4c-3.28,5.82-1.26,45.08-1.2,54.4l112-.12-.03,31.12-148.8-.02.05-198.86h0Z"/>
        <path class="st19" d="M998.79,1271.12h163.38l-.1,25.09c-39,47.54-77.21,95.88-117.14,142.63l121.05.07v31.24l-169.12-.06v-24.91c8.45-10.32,43.48-55.97,49.51-60.14,4.21-6.23,9.38-11.95,14.19-17.73,17.5-21.72,34.77-44.14,53.33-64.92-38.42.13-76.91.4-115.32-.09l.23-31.18h-.01Z"/>
        <path class="st19" d="M892.69,1271.15l37.03-.06-.1,198.59c-11,2.33-25.63.46-36.98.38l.05-198.91h0Z"/>
      </g>
    </g>
    <g>
      <path class="st10" d="M466.63,1553.07h32.21c8.36,0,15.74,1.68,22.15,5.03,6.4,3.35,11.37,8.02,14.92,14.01,3.54,5.99,5.31,12.83,5.31,20.51s-1.77,14.52-5.31,20.51c-3.54,5.99-8.51,10.66-14.92,14.01-6.4,3.35-13.79,5.03-22.15,5.03h-32.21v-79.1ZM498.38,1624.94c6.93,0,13-1.37,18.19-4.12,5.2-2.75,9.23-6.55,12.09-11.41,2.86-4.86,4.29-10.45,4.29-16.78s-1.43-11.92-4.29-16.78c-2.86-4.86-6.89-8.66-12.09-11.41-5.2-2.75-11.26-4.12-18.19-4.12h-23.39v64.64h23.39Z"/>
      <path class="st12" d="M619.97,1624.94v7.23h-55.94v-79.1h54.24v7.23h-45.88v28.14h40.91v7.12h-40.91v29.38h47.57Z"/>
      <path class="st16" d="M709.8,1553.07v79.1h-6.89l-50.85-64.18v64.18h-8.36v-79.1h6.89l50.96,64.18v-64.18h8.25Z"/>
      <path class="st8" d="M755,1560.31h-27.8v-7.23h63.96v7.23h-27.8v71.87h-8.36v-71.87Z"/>
      <path class="st4" d="M854.22,1611.04h-44.07l-9.49,21.13h-8.7l36.16-79.1h8.25l36.16,79.1h-8.81l-9.49-21.13ZM851.17,1604.26l-18.98-42.49-18.98,42.49h37.97Z"/>
      <path class="st3" d="M889.7,1553.07h8.36v71.87h44.3v7.23h-52.66v-79.1Z"/>
      <path class="st1" d="M1043.61,1611.04h-44.07l-9.49,21.13h-8.7l36.16-79.1h8.25l36.16,79.1h-8.81l-9.49-21.13ZM1040.55,1604.26l-18.98-42.49-18.98,42.49h37.97Z"/>
      <path class="st5" d="M1091.12,1627.65c-6.29-3.46-11.23-8.27-14.8-14.41-3.58-6.14-5.37-13.01-5.37-20.62s1.79-14.48,5.37-20.62c3.58-6.14,8.53-10.94,14.86-14.41,6.33-3.46,13.41-5.2,21.24-5.2,5.88,0,11.3.98,16.27,2.94,4.97,1.96,9.19,4.82,12.66,8.59l-5.31,5.31c-6.18-6.25-13.97-9.38-23.39-9.38-6.25,0-11.94,1.43-17.06,4.29-5.12,2.86-9.14,6.78-12.04,11.75-2.9,4.97-4.35,10.55-4.35,16.72s1.45,11.75,4.35,16.72c2.9,4.97,6.91,8.89,12.04,11.75,5.12,2.86,10.81,4.29,17.06,4.29,9.49,0,17.29-3.16,23.39-9.49l5.31,5.31c-3.47,3.77-7.7,6.65-12.71,8.64-5.01,2-10.45,2.99-16.33,2.99-7.84,0-14.9-1.73-21.19-5.2Z"/>
      <path class="st7" d="M1210.85,1611.04h-44.07l-9.49,21.13h-8.7l36.16-79.1h8.25l36.16,79.1h-8.81l-9.49-21.13ZM1207.79,1604.26l-18.98-42.49-18.98,42.49h37.97Z"/>
      <path class="st17" d="M1246.33,1553.07h32.21c8.36,0,15.74,1.68,22.15,5.03,6.4,3.35,11.37,8.02,14.92,14.01,3.54,5.99,5.31,12.83,5.31,20.51s-1.77,14.52-5.31,20.51c-3.54,5.99-8.51,10.66-14.92,14.01-6.4,3.35-13.79,5.03-22.15,5.03h-32.21v-79.1ZM1278.08,1624.94c6.93,0,13-1.37,18.19-4.12,5.2-2.75,9.23-6.55,12.09-11.41,2.86-4.86,4.29-10.45,4.29-16.78s-1.43-11.92-4.29-16.78c-2.86-4.86-6.89-8.66-12.09-11.41-5.2-2.75-11.26-4.12-18.19-4.12h-23.39v64.64h23.39Z"/>
      <path class="st11" d="M1399.67,1624.94v7.23h-55.94v-79.1h54.24v7.23h-45.88v28.14h40.91v7.12h-40.91v29.38h47.57Z"/>
      <path class="st15" d="M1505.55,1553.07v79.1h-8.02v-63.28l-31.08,53.22h-3.95l-31.08-52.88v62.94h-8.02v-79.1h6.89l34.35,58.65,34.01-58.65h6.89Z"/>
      <path class="st6" d="M1562.5,1604.83v27.35h-8.25v-27.35l-31.64-51.75h8.93l27.12,44.41,27.12-44.41h8.36l-31.64,51.75Z"/>
    </g>
  </g>
</svg>